<svg viewBox="0 0 32 32" xmlns="http://www.w3.org/2000/svg">
  <path d="M12.0004 22.6665V14.6665C12.0004 13.9301 12.597 13.3335 13.3334 13.3335C14.0698 13.3335 14.6664 13.9301 14.6664 14.6665V22.6665C14.6664 23.4029 14.0698 23.9995 13.3334 23.9995C12.597 23.9995 12.0004 23.4029 12.0004 22.6665Z"/>
  <path d="M17.3336 22.6665V14.6665C17.3336 13.9301 17.9302 13.3335 18.6666 13.3335C19.403 13.3335 19.9996 13.9301 19.9996 14.6665V22.6665C19.9996 23.4029 19.403 23.9995 18.6666 23.9995C17.9302 23.9995 17.3336 23.4029 17.3336 22.6665Z"/>
  <path d="M5.33362 26.667V8C5.33362 7.26362 5.93025 6.66699 6.66663 6.66699C7.40301 6.66699 7.99963 7.26362 7.99963 8V26.667C7.99972 27.0204 8.14039 27.3594 8.39026 27.6094C8.64031 27.8594 8.98 28 9.33362 28H22.6666C23.0202 28 23.359 27.8593 23.609 27.6094C23.859 27.3594 23.9995 27.0205 23.9996 26.667V8C23.9996 7.26362 24.5972 6.66699 25.3336 6.66699C26.0698 6.66717 26.6666 7.26373 26.6666 8V26.667C26.6665 27.7277 26.2448 28.745 25.4948 29.4951C24.7446 30.2452 23.7274 30.667 22.6666 30.667H9.33362C8.27275 30.667 7.25466 30.2453 6.50452 29.4951C5.75455 28.7451 5.3337 27.7277 5.33362 26.667Z"/>
  <path d="M28 6.66699C28.7364 6.66699 29.333 7.26362 29.333 8C29.333 8.73638 28.7364 9.33301 28 9.33301H4C3.26362 9.33301 2.66699 8.73638 2.66699 8C2.66699 7.26362 3.26362 6.66699 4 6.66699H28Z"/>
  <path d="M13.333 6.66699V5.33366C13.333 4.59728 13.9296 4.00065 14.666 4.00065H17.333C18.0694 4.00065 18.666 4.59728 18.666 5.33366V6.66699H13.333Z"/>
</svg>