<svg viewBox="0 0 32 32" xmlns="http://www.w3.org/2000/svg">
  <path d="M14.6667 24C20.5577 24 25.3333 19.2244 25.3333 13.3333C25.3333 7.44233 20.5577 2.66667 14.6667 2.66667C8.77563 2.66667 4 7.44233 4 13.3333C4 19.2244 8.77563 24 14.6667 24ZM14.6667 21.3333C10.5007 21.3333 6.66667 17.4993 6.66667 13.3333C6.66667 9.16733 10.5007 5.33333 14.6667 5.33333C18.8327 5.33333 22.6667 9.16733 22.6667 13.3333C22.6667 17.4993 18.8327 21.3333 14.6667 21.3333Z"/>
  <path d="M22.0781 20.6642C22.66 20.0823 23.6067 20.0823 24.1886 20.6642L28.4719 24.9475C29.0538 25.5295 29.0538 26.4762 28.4719 27.0581C27.89 27.64 26.9433 27.64 26.3614 27.0581L22.0781 22.7748C21.4962 22.1929 21.4962 21.2462 22.0781 20.6642Z"/>
</svg>